<?xml version="1.0" encoding="UTF-8" standalone="no"?>
<svg width="64px" height="65px" viewBox="0 0 64 65" version="1.1" xmlns="http://www.w3.org/2000/svg" xmlns:xlink="http://www.w3.org/1999/xlink" xmlns:sketch="http://www.bohemiancoding.com/sketch/ns">
    <!-- Generator: Sketch 3.0.4 (8053) - http://www.bohemiancoding.com/sketch -->
    <title>Instagram Glyph</title>
    <desc>Created with Sketch.</desc>
    <defs>
        <path id="path-1" d="M0,-0.217875223 L64,-0.217875223 L64,63.7821248 L0,63.7821248 L0,-0.217875223 Z"></path>
    </defs>
    <g id="Page-1" stroke="none" stroke-width="1" fill="none" fill-rule="evenodd" sketch:type="MSPage">
        <g id="v1r1-instagram-1080p" sketch:type="MSArtboardGroup" transform="translate(-72.000000, -963.000000)">
            <g id="Instagram-Glyph" sketch:type="MSLayerGroup" transform="translate(72.000000, 964.000000)">
                <mask id="mask-2" sketch:name="Clip 2" fill="white">
                    <use xlink:href="#path-1"></use>
                </mask>
                <g id="Clip-2"></g>
                <path d="M56.5207274,63.6724534 L7.37067363,63.6724534 C3.30047096,63.6724534 0.000169333075,60.3710229 0.000169333075,56.297998 L0.000169333075,7.15245974 C0.000169333075,3.08169263 3.30047096,-0.218044556 7.37067363,-0.218044556 L56.5207274,-0.218044556 C60.5914945,-0.218044556 63.8912317,3.08169263 63.8912317,7.15245974 L63.8912317,56.297998 C63.8912317,60.3710229 60.5914945,63.6724534 56.5207274,63.6724534 L56.5207274,63.6724534 Z M31.9454183,19.4398321 C25.1591131,19.4398321 19.6586104,24.9397703 19.6586104,31.7260755 C19.6586104,38.5112518 25.1591131,44.0140123 31.9454183,44.0140123 C38.7317235,44.0140123 44.2333551,38.5112518 44.2333551,31.7260755 C44.2333551,24.9397703 38.7317235,19.4398321 31.9454183,19.4398321 L31.9454183,19.4398321 Z M56.5207274,9.60948265 C56.5207274,8.25312472 55.4200624,7.15245974 54.0608823,7.15245974 L46.690378,7.15245974 C45.3328912,7.15245974 44.2333551,8.25312472 44.2333551,9.60948265 L44.2333551,16.9828092 C44.2333551,18.3391671 45.3328912,19.4398321 46.690378,19.4398321 L54.0608823,19.4398321 C55.4200624,19.4398321 56.5207274,18.3391671 56.5207274,16.9828092 L56.5207274,9.60948265 Z M56.5207274,26.8097719 L50.9587004,26.8097719 C51.3639709,28.3828762 51.6032949,30.0265359 51.6032949,31.7260755 C51.6032949,42.5848412 42.8024906,51.3850811 31.9454183,51.3850811 C21.0889104,51.3850811 12.2875417,42.5848412 12.2875417,31.7260755 C12.2875417,30.0265359 12.5279946,28.3828762 12.9332651,26.8097719 L7.37067363,26.8097719 L7.37067363,53.8426684 C7.37067363,55.1978974 8.47133861,56.297998 9.83051876,56.297998 L54.0608823,56.297998 C55.4200624,56.297998 56.5207274,55.1978974 56.5207274,53.8426684 L56.5207274,26.8097719 Z" id="Fill-1" fill="#FFFFFF" sketch:type="MSShapeGroup" mask="url(#mask-2)"></path>
            </g>
        </g>
    </g>
</svg>